# File created by Blade
# Date/Time:  Tue Sep 30 19:29:51 2014
#---------------------------------------------------------
:version 1.10
:name HOM
:units
  mass 1.0
  length 1.000000
  angle deg
:documentation
     Acclaim Skeleton File
:root
   axis xyz
   order TX TY TZ RX RY RZ
   position 0.000000 0.000000 0.000000
   orientation 0 0 0
:bonedata
   begin
      id 1
      name RightUpLeg_dum
      direction -1.000000 0.000000 0.000000
      length 3.766986
      axis 0.0 0.0 0.0 xyz
   end
   begin
      id 2
      name LeftUpLeg_dum
      direction 1.000000 0.000000 0.000000
      length 3.766986
      axis 0.0 0.0 0.0 xyz
   end
   begin
      id 3
      name Spine_dum
      direction 0.000000 1.000000 0.000000
      length 7.779697
      axis 0.0 0.0 0.0 xyz
   end
   begin
      id 4
      name RightUpLeg
      direction 0.000000 -1.000000 0.000000
      length 18.017682
      axis 0.0 0.0 0.0 xyz
      dof rx ry rz
   end
   begin
      id 5
      name RightLeg
      direction 0.000000 -1.000000 0.000000
      length 16.881075
      axis 0.0 0.0 0.0 xyz
      dof rx ry rz
   end
   begin
      id 6
      name RightFoot
      direction 0.000000 -0.258819 0.965926
      length 5.770812
      axis 15.0 0.0 0.0 xyz
      dof rx ry rz
   end
   begin
      id 7
      name RightToeBase
      direction 0.000000 0.000000 1.000000
      length 2.952750
      axis 0.0 0.0 0.0 xyz
      dof rx ry rz
   end
   begin
      id 8
      name LeftUpLeg
      direction 0.000000 -1.000000 0.000000
      length 18.017682
      axis 0.0 0.0 0.0 xyz
      dof rx ry rz
   end
   begin
      id 9
      name LeftLeg
      direction 0.000000 -1.000000 0.000000
      length 16.881075
      axis 0.0 0.0 0.0 xyz
      dof rx ry rz
   end
   begin
      id 10
      name LeftFoot
      direction 0.000000 -0.258819 0.965926
      length 5.770812
      axis 15.0 0.0 0.0 xyz
      dof rx ry rz
   end
   begin
      id 11
      name LeftToeBase
      direction 0.000000 0.000000 1.000000
      length 2.952750
      axis 0.0 0.0 0.0 xyz
      dof rx ry rz
   end
   begin
      id 12
      name Spine
      direction 0.000000 1.000000 0.000000
      length 0.000000
      axis 0.0 0.0 0.0 xyz
      dof rx ry rz
   end
   begin
      id 13
      name Spine_dum1
      direction 0.000000 1.000000 0.000000
      length 10.941760
      axis 0.0 0.0 0.0 xyz
   end
   begin
      id 14
      name Spine_dum2
      direction 0.000000 1.000000 0.000000
      length 10.941760
      axis 0.0 0.0 0.0 xyz
   end
   begin
      id 15
      name Spine_dum3
      direction 0.000000 1.000000 0.000000
      length 16.646042
      axis 0.0 0.0 0.0 xyz
   end
   begin
      id 16
      name RightShoulder
      direction -1.000000 0.000000 0.000000
      length 7.708937
      axis 0.0 0.0 90.0 xyz
      dof rx ry rz
   end
   begin
      id 17
      name RightArm
      direction -1.000000 0.000000 0.000000
      length 11.521345
      axis 0.0 0.0 90.0 xyz
      dof rx ry rz
   end
   begin
      id 18
      name RightForeArm
      direction -1.000000 0.000000 0.000000
      length 10.175898
      axis 0.0 0.0 90.0 xyz
      dof ry rz rx
   end
   begin
      id 19
      name RightHand
      direction -1.000000 0.000000 0.000000
      length 0.000000
      axis 0.0 0.0 90.0 xyz
      dof rx ry rz
   end
   begin
      id 20
      name RightHand_dum1
      direction -1.000000 0.000000 0.000000
      length 3.937000
      axis 0.0 0.0 90.0 xyz
   end
   begin
      id 21
      name RightHand_dum2
      direction 0.000000 0.000000 0.000000
      length 0.000000
      axis 0.0 0.0 90.0 xyz
   end
   begin
      id 22
      name RightHandThumb1
      direction 0.000000 0.000000 1.000000
      length 3.937000
      axis 0.0 0.0 90.0 xyz
      dof rx rz ry
   end
   begin
      id 23
      name LeftShoulder
      direction 1.000000 0.000000 0.000000
      length 7.708937
      axis 0.0 0.0 -90.0 xyz
      dof rx ry rz
   end
   begin
      id 24
      name LeftArm
      direction 1.000000 0.000000 0.000000
      length 11.521345
      axis 0.0 0.0 -90.0 xyz
      dof rx ry rz
   end
   begin
      id 25
      name LeftForeArm
      direction 1.000000 0.000000 0.000000
      length 10.175898
      axis 0.0 0.0 -90.0 xyz
      dof ry rz rx
   end
   begin
      id 26
      name LeftHand
      direction 1.000000 0.000000 0.000000
      length 0.000000
      axis 0.0 0.0 -90.0 xyz
      dof rx ry rz
   end
   begin
      id 27
      name LeftHand_dum1
      direction 1.000000 0.000000 0.000000
      length 3.937000
      axis 0.0 0.0 -90.0 xyz
   end
   begin
      id 28
      name LeftHand_dum2
      direction 0.000000 0.000000 0.000000
      length 0.000000
      axis 0.0 0.0 -90.0 xyz
   end
   begin
      id 29
      name LeftHandThumb1
      direction 0.000000 0.000000 1.000000
      length 3.937000
      axis 0.0 0.0 -90.0 xyz
      dof rx rz ry
   end
   begin
      id 30
      name Head
      direction 0.000000 1.000000 0.000000
      length 4.527550
      axis 0.0 0.0 0.0 xyz
      dof rx ry rz
   end
:hierarchy
   begin
      root RightUpLeg_dum LeftUpLeg_dum Spine_dum
      RightUpLeg_dum RightUpLeg
      LeftUpLeg_dum LeftUpLeg
      Spine_dum Spine
      RightUpLeg RightLeg
      RightLeg RightFoot
      RightFoot RightToeBase
      LeftUpLeg LeftLeg
      LeftLeg LeftFoot
      LeftFoot LeftToeBase
      Spine Spine_dum1 Spine_dum2 Spine_dum3
      Spine_dum1 RightShoulder
      Spine_dum2 LeftShoulder
      Spine_dum3 Head
      RightShoulder RightArm
      RightArm RightForeArm
      RightForeArm RightHand
      RightHand RightHand_dum1 RightHand_dum2
      RightHand_dum2 RightHandThumb1
      LeftShoulder LeftArm
      LeftArm LeftForeArm
      LeftForeArm LeftHand
      LeftHand LeftHand_dum1 LeftHand_dum2
      LeftHand_dum2 LeftHandThumb1
   end

# File created by Blade
# Date/Time:  Mon Sep 22 17:46:01 2014
# Frame Rate: 120.000 fps
#------------------------------------------------------
:FULLY-SPECIFIED
:DEGREES
850
root 5.861252 37.331279 4.094855 -10.801881 -0.230246 -4.551939
RightUpLeg -20.105335 1.178419 1.401903
RightLeg 49.378989 -0.000000 -0.000000
RightFoot -1.732437 -28.772642 12.246535
RightToeBase -2.822613 -0.000000 0.000000
LeftUpLeg 13.906671 -6.111362 -5.156411
LeftLeg 4.666522 -0.000000 -0.000000
LeftFoot -12.055823 13.948427 -9.745666
LeftToeBase 6.996709 -0.000000 -0.000000
Spine 14.756957 -7.723118 -1.700562
RightShoulder -0.135896 -30.780172 -6.139630
RightArm 20.772771 -20.896330 62.616558
RightForeArm 7.413432 0.000000 45.882045
RightHand -3.562825 -0.000000 -9.352625
RightHandThumb1 -24.326973 -0.000000 -32.862282
LeftShoulder -19.190200 33.094449 -0.890251
LeftArm 55.341428 -16.007305 -73.448469
LeftForeArm 18.027277 -0.000000 94.242552
LeftHand -27.411793 -0.000000 19.290657
LeftHandThumb1 -26.253704 0.000000 33.147579
Head 21.372393 2.531838 9.917080
851
root 5.848284 37.334738 4.083969 -10.752348 -0.215445 -4.584192
RightUpLeg -20.133040 1.273927 1.403108
RightLeg 49.487009 -0.000000 -0.000000
RightFoot -1.742638 -28.690264 12.244042
RightToeBase -2.855924 -0.000000 0.000000
LeftUpLeg 13.826565 -6.131162 -5.093715
LeftLeg 4.698842 -0.000000 -0.000000
LeftFoot -12.086462 13.927919 -9.796079
LeftToeBase 7.044432 -0.000000 -0.000000
Spine 14.727821 -7.822347 -1.781331
RightShoulder -0.172844 -30.783660 -6.035775
RightArm 20.771921 -20.997824 62.656431
RightForeArm 7.456793 -0.000000 45.909468
RightHand -3.443944 -0.000000 -9.122119
RightHandThumb1 -24.326973 -0.000000 -32.862282
LeftShoulder -19.097350 33.016619 -0.739102
LeftArm 55.357962 -16.103738 -73.506579
LeftForeArm 18.067665 0.000000 94.068797
LeftHand -27.307764 -0.000000 19.396174
LeftHandThumb1 -26.253704 0.000000 33.147579
Head 21.431085 2.505251 9.989379
852
root 5.836520 37.339669 4.075717 -10.696396 -0.203161 -4.621151
RightUpLeg -20.168029 1.310680 1.415304
RightLeg 49.602986 -0.000000 -0.000000
RightFoot -1.761882 -28.637929 12.277560
RightToeBase -2.835680 -0.000000 0.000000
LeftUpLeg 13.757982 -6.176561 -5.039907
LeftLeg 4.700305 -0.000000 -0.000000
LeftFoot -12.099814 13.951248 -9.864903
LeftToeBase 7.134585 -0.000000 -0.000000
Spine 14.678284 -7.935561 -1.842143
RightShoulder -0.224124 -30.799901 -5.954872
RightArm 20.818323 -21.161184 62.656688
RightForeArm 7.498507 0.000000 45.879418
RightHand -3.364778 -0.000000 -9.328630
RightHandThumb1 -24.326973 -0.000000 -32.862282
LeftShoulder -19.011591 32.948309 -0.641144
LeftArm 55.357093 -16.218166 -73.504821
LeftForeArm 18.039422 -0.000000 93.953793
LeftHand -27.397320 -0.000000 19.421347
LeftHandThumb1 -26.253704 0.000000 33.147579
Head 21.509540 2.505557 10.017067
853
root 5.827721 37.344082 4.069954 -10.640565 -0.195398 -4.657438
RightUpLeg -20.206398 1.335408 1.432045
RightLeg 49.733429 -0.000000 -0.000000
RightFoot -1.763550 -28.614085 12.240155
RightToeBase -2.779464 -0.000000 0.000000
LeftUpLeg 13.704287 -6.251636 -5.003117
LeftLeg 4.682844 -0.000000 -0.000000
LeftFoot -12.102937 14.015856 -9.899655
LeftToeBase 7.187243 -0.000000 -0.000000
Spine 14.613034 -8.044336 -1.880855
RightShoulder -0.270183 -30.816240 -5.891278
RightArm 20.830688 -21.268908 62.693012
RightForeArm 7.287183 -0.000000 45.863146
RightHand -3.562857 -0.000000 -9.262004
RightHandThumb1 -24.326973 -0.000000 -32.862282
LeftShoulder -18.939011 32.924778 -0.576794
LeftArm 55.391540 -16.316746 -73.503889
LeftForeArm 17.974641 -0.000000 93.818620
LeftHand -27.295601 -0.000000 19.515070
LeftHandThumb1 -26.253704 0.000000 33.147579
Head 21.609281 2.524867 10.022654
854
root 5.816924 37.348799 4.062403 -10.575734 -0.181163 -4.710647
RightUpLeg -20.258562 1.351237 1.477795
RightLeg 49.851896 -0.000000 -0.000000
RightFoot -1.793813 -28.679478 12.239949
RightToeBase -2.851046 -0.000000 0.000000
LeftUpLeg 13.633431 -6.328334 -4.941674
LeftLeg 4.676949 -0.000000 -0.000000
LeftFoot -12.113414 14.071176 -9.928989
LeftToeBase 7.183039 -0.000000 -0.000000
Spine 14.545132 -8.170240 -1.904843
RightShoulder -0.301266 -30.814797 -5.848013
RightArm 20.827618 -21.464078 62.699477
RightForeArm 7.380059 -0.000000 45.827859
RightHand -3.485461 -0.000000 -9.219236
RightHandThumb1 -24.326973 -0.000000 -32.862282
LeftShoulder -18.905742 32.913183 -0.553015
LeftArm 55.447279 -16.408255 -73.485106
LeftForeArm 18.004038 -0.000000 93.704685
LeftHand -27.289622 -0.000000 19.500989
LeftHandThumb1 -26.253704 0.000000 33.147579
Head 21.696142 2.571271 9.993127
855
root 5.805284 37.352249 4.055305 -10.526684 -0.168423 -4.748430
RightUpLeg -20.307409 1.348124 1.510838
RightLeg 50.005521 -0.000000 -0.000000
RightFoot -1.853630 -28.750628 12.271249
RightToeBase -2.898609 -0.000000 0.000000
LeftUpLeg 13.587523 -6.461226 -4.914988
LeftLeg 4.668508 -0.000000 -0.000000
LeftFoot -12.125872 14.150574 -9.986295
LeftToeBase 7.449318 -0.000000 -0.000000
Spine 14.506185 -8.273167 -1.968059
RightShoulder -0.375770 -30.828268 -5.758962
RightArm 20.901688 -21.658763 62.650557
RightForeArm 7.292676 -0.000000 45.769663
RightHand -3.517260 -0.000000 -9.139426
RightHandThumb1 -24.326973 -0.000000 -32.862282
LeftShoulder -18.851237 32.879041 -0.484118
LeftArm 55.467660 -16.481593 -73.451258
LeftForeArm 18.027118 -0.000000 93.639947
LeftHand -27.313897 -0.000000 19.348504
LeftHandThumb1 -26.253704 0.000000 33.147579
Head 21.725798 2.571896 10.009909
856
root 5.793840 37.356660 4.050369 -10.486702 -0.175284 -4.793514
RightUpLeg -20.348770 1.367948 1.560385
RightLeg 50.170369 -0.000000 -0.000000
RightFoot -1.935204 -28.813282 12.297091
RightToeBase -2.847283 -0.000000 0.000000
LeftUpLeg 13.555937 -6.513825 -4.861572
LeftLeg 4.631488 -0.000000 -0.000000
LeftFoot -12.112197 14.263649 -9.934128
LeftToeBase 6.980604 -0.000000 -0.000000
Spine 14.469351 -8.360398 -1.995991
RightShoulder -0.425438 -30.847111 -5.714466
RightArm 20.908397 -21.823753 62.680470
RightForeArm 7.132489 -0.000000 45.745727
RightHand -3.649247 -0.000000 -8.890762
RightHandThumb1 -24.326973 -0.000000 -32.862282
LeftShoulder -18.784901 32.855090 -0.442509
LeftArm 55.480883 -16.552022 -73.415662
LeftForeArm 18.013087 -0.000000 93.597496
LeftHand -27.321308 -0.000000 19.320018
LeftHandThumb1 -26.253704 0.000000 33.147579
Head 21.771827 2.649708 9.992155
857
root 5.780759 37.360688 4.045739 -10.448214 -0.177059 -4.842236
RightUpLeg -20.409640 1.338474 1.620036
RightLeg 50.359428 -0.000000 -0.000000
RightFoot -1.978129 -28.858454 12.305853
RightToeBase -2.782427 -0.000000 0.000000
LeftUpLeg 13.519555 -6.561223 -4.801712
LeftLeg 4.618450 -0.000000 -0.000000
LeftFoot -12.107843 14.318371 -9.928703
LeftToeBase 7.021374 -0.000000 -0.000000
Spine 14.433106 -8.442705 -2.023797
RightShoulder -0.468432 -30.879917 -5.664915
RightArm 20.919484 -21.969276 62.671743
RightForeArm 7.203415 -0.000000 45.727278
RightHand -3.643645 0.000000 -8.738221
RightHandThumb1 -24.326973 -0.000000 -32.862282
LeftShoulder -18.727643 32.854450 -0.410252
LeftArm 55.505524 -16.615584 -73.366836
LeftForeArm 18.000331 -0.000000 93.577049
LeftHand -27.336377 -0.000000 19.271680
LeftHandThumb1 -26.253704 0.000000 33.147579
Head 21.798296 2.728894 9.981806
858
root 5.769705 37.364213 4.041043 -10.410895 -0.192614 -4.869093
RightUpLeg -20.470899 1.357243 1.659975
RightLeg 50.554078 -0.000000 -0.000000
RightFoot -1.990339 -28.897086 12.235867
RightToeBase -2.699886 -0.000000 0.000000
LeftUpLeg 13.483356 -6.583678 -4.760802
LeftLeg 4.605492 -0.000000 -0.000000
LeftFoot -12.072162 14.368935 -9.878568
LeftToeBase 6.959478 -0.000000 -0.000000
Spine 14.403646 -8.523626 -2.082752
RightShoulder -0.495167 -30.920115 -5.612229
RightArm 20.940474 -22.135641 62.659069
RightForeArm 7.160084 -0.000000 45.688563
RightHand -3.663888 -0.000000 -8.575842
RightHandThumb1 -24.326973 -0.000000 -32.862282
LeftShoulder -18.693301 32.816964 -0.383028
LeftArm 55.475232 -16.656976 -73.262206
LeftForeArm 17.955610 -0.000000 93.584586
LeftHand -27.257096 -0.000000 19.273044
LeftHandThumb1 -26.253704 0.000000 33.147579
Head 21.813910 2.765173 9.912676
859
root 5.757098 37.367919 4.036773 -10.377856 -0.217017 -4.912484
RightUpLeg -20.532026 1.381158 1.717346
RightLeg 50.744838 -0.000000 -0.000000
RightFoot -1.999289 -28.885652 12.286053
RightToeBase -2.829967 -0.000000 0.000000
LeftUpLeg 13.449577 -6.595773 -4.697654
LeftLeg 4.600469 -0.000000 -0.000000
LeftFoot -12.071325 14.400049 -9.866704
LeftToeBase 6.952720 -0.000000 -0.000000
Spine 14.387475 -8.566338 -2.110173
RightShoulder -0.563743 -30.955920 -5.543001
RightArm 20.946270 -22.278184 62.648093
RightForeArm 7.240798 0.000000 45.684971
RightHand -3.566233 -0.000000 -8.369904
RightHandThumb1 -24.326973 -0.000000 -32.862282
LeftShoulder -18.637606 32.801365 -0.356942
LeftArm 55.470857 -16.687760 -73.171267
LeftForeArm 18.011388 -0.000000 93.629192
LeftHand -27.315147 -0.000000 19.178204
LeftHandThumb1 -26.253704 0.000000 33.147579
Head 21.802152 2.839090 9.884891
860
root 5.743600 37.370430 4.032755 -10.353508 -0.252725 -4.951008
RightUpLeg -20.593418 1.415396 1.782101
RightLeg 50.958957 -0.000000 -0.000000
RightFoot -2.053666 -28.810109 12.312446
RightToeBase -2.654568 -0.000000 0.000000
LeftUpLeg 13.426603 -6.571149 -4.626212
LeftLeg 4.580344 -0.000000 -0.000000
LeftFoot -12.056027 14.394321 -9.856152
LeftToeBase 6.904820 -0.000000 -0.000000
Spine 14.383981 -8.588189 -2.148876
RightShoulder -0.633594 -31.014612 -5.470071
RightArm 20.958957 -22.406368 62.644605
RightForeArm 7.129185 -0.000000 45.684445
RightHand -3.753560 0.000000 -8.271835
RightHandThumb1 -24.326973 -0.000000 -32.862282
LeftShoulder -18.589532 32.798290 -0.314191
LeftArm 55.479222 -16.690226 -73.107751
LeftForeArm 18.000222 -0.000000 93.706809
LeftHand -27.465147 -0.000000 19.103857
LeftHandThumb1 -26.253704 0.000000 33.147579
Head 21.770201 2.907097 9.862265
861
root 5.731667 37.372843 4.028183 -10.332488 -0.291870 -4.980105
RightUpLeg -20.655840 1.440919 1.837103
RightLeg 51.158439 -0.000000 -0.000000
RightFoot -2.063302 -28.732271 12.373248
RightToeBase -2.735796 -0.000000 0.000000
LeftUpLeg 13.397614 -6.553471 -4.573282
LeftLeg 4.600073 -0.000000 -0.000000
LeftFoot -12.067432 14.371677 -9.817342
LeftToeBase 7.354311 -0.000000 -0.000000
Spine 14.394621 -8.614487 -2.186815
RightShoulder -0.657191 -31.051403 -5.437676
RightArm 20.950806 -22.532297 62.659410
RightForeArm 7.215626 -0.000000 45.667734
RightHand -3.714331 -0.000000 -8.288188
RightHandThumb1 -24.326973 -0.000000 -32.862282
LeftShoulder -18.551872 32.776630 -0.300040
LeftArm 55.437895 -16.693812 -72.979864
LeftForeArm 17.983991 -0.000000 93.806757
LeftHand -27.328816 -0.000000 19.136802
LeftHandThumb1 -26.253704 0.000000 33.147579
Head 21.722132 2.976847 9.805665
862
root 5.718668 37.375238 4.023634 -10.317426 -0.355225 -5.010573
RightUpLeg -20.719285 1.535860 1.893849
RightLeg 51.372019 -0.000000 -0.000000
RightFoot -2.062759 -28.624075 12.400681
RightToeBase -2.633181 -0.000000 0.000000
LeftUpLeg 13.370986 -6.486593 -4.504177
LeftLeg 4.601520 -0.000000 -0.000000
LeftFoot -12.034946 14.412606 -9.722009
LeftToeBase 6.820534 -0.000000 -0.000000
Spine 14.413840 -8.619782 -2.232733
RightShoulder -0.692074 -31.122767 -5.389112
RightArm 20.968786 -22.625574 62.652750
RightForeArm 7.156564 -0.000000 45.663754
RightHand -3.822023 -0.000000 -7.775320
RightHandThumb1 -24.326973 -0.000000 -32.862282
LeftShoulder -18.532788 32.811907 -0.283055
LeftArm 55.461329 -16.690529 -72.932313
LeftForeArm 18.042379 0.000000 93.939186
LeftHand -27.358329 -0.000000 18.923261
LeftHandThumb1 -26.253704 0.000000 33.147579
Head 21.674157 3.065281 9.782521
